# xmcd CD database file
#
# Track frame offsets:
#	150
#	19374
#	37831
#	52942
#	64562
#	79301
#	95000
#	109843
#	125162
#	140397
#	158545
#	179019
#	196484
#	215676
#	232260
#	246541
#	256628
#	275589
#
# Disc length: 3898 seconds
#
# Revision: 3
# Processed by: cddbd v1.5.2PL0 Copyright (c) Steve Scherf et al.
# Submitted via: CDex 1.70beta2
#
DISCID=0c0f3812
DTITLE=Various Artist - The Winners 3 [CD1]
DYEAR=1995
DGENRE=Country
TTITLE0=The Australian Family of country Music - Bridge of Love
TTITLE1=Clint Beattie - Learning How to Love
TTITLE2=Lee Kernaghan - The Outback Club
TTITLE3=Jane Saunders - Lily White Hands
TTITLE4=John Williamson - Seven Year Itch
TTITLE5=Brent Parlane - Am I Ever Gonna See Your Face Again?
TTITLE6=Troy Cassar Daley - Dream Out Loud
TTITLE7=Dead Ringer Band - Family Man
TTITLE8=Rosemary Rae - Makin Love To Merle
TTITLE9=Paul and PIXIE Jenkins - Nhulabuy - A Dream Of Love
TTITLE10=Slim Dusty - Kokoda Track
TTITLE11=Big Red - Tough Country
TTITLE12=Graeme Connors - Songs From The Homeland
TTITLE13=T. C. Cassidy - Honey Lately
TTITLE14=Michael Fix - Bush Bash
TTITLE15=Brian Letton - Am I That Easy To Forget
TTITLE16=Stan Coster - Lawson's Loaded Dog
TTITLE17=Col Elliott and Lee Conway - Gone Fishin'
EXTD=YEAR: 1995
EXTT0=
EXTT1=
EXTT2=
EXTT3=
EXTT4=
EXTT5=
EXTT6=
EXTT7=
EXTT8=
EXTT9=
EXTT10=
EXTT11=
EXTT12=
EXTT13=
EXTT14=
EXTT15=
EXTT16=
EXTT17=
PLAYORDER=
